<?xml version="1.0" encoding="utf-8"?>
<!-- Generator: Adobe Illustrator 28.0.0, SVG Export Plug-In . SVG Version: 6.00 Build 0)  -->
<svg version="1.1" id="Capa_1" xmlns="http://www.w3.org/2000/svg" xmlns:xlink="http://www.w3.org/1999/xlink" x="0px" y="0px"
	 viewBox="0 0 110 130" style="enable-background:new 0 0 110 130;" xml:space="preserve">
<style type="text/css">
	.st0{fill:#242424;}
	.st1{fill:#AEC90A;}
</style>
<g>
	<circle class="st0" cx="55" cy="65" r="53.4"/>
	<circle class="st1" cx="55" cy="65" r="49.9"/>
</g>
<g>
	<path class="st0" d="M77.4,57.9v-4.6c0.6-0.2,1-0.8,1-1.5c0-0.7-0.5-1.2-1.1-1.4l-16.8-4.2c-0.1,0-0.3,0-0.4,0l-16.8,3.9
		c-0.7,0.2-1.1,0.7-1.2,1.4c0,0.7,0.4,1.3,1.1,1.5l3.5,1.1v5.4c0,1,0.5,2,1.4,2.5c3.7,2.4,7.9,3.7,12.3,3.7c5.3,0,9.9-2.3,12.2-3.7
		c0.9-0.5,1.4-1.5,1.4-2.6v-5.1l1.8-0.5v4.1h0c-1,0.4-1.6,1.5-1.4,2.6c0.2,1.1,1.2,1.9,2.3,1.9c1.1,0,2-0.8,2.3-1.9
		C79,59.4,78.4,58.3,77.4,57.9L77.4,57.9z M60.2,47.9l15.9,4l-15.9,4.6l-15.9-4.9L60.2,47.9z M72.2,59.4c0,0.4-0.2,0.8-0.6,1.1
		c-1.7,1.1-6.3,3.5-11.3,3.5v0c-4-0.1-7.9-1.3-11.3-3.5c-0.4-0.2-0.6-0.6-0.6-1.1v-4.8L60,58.3c0.2,0,0.3,0.1,0.5,0l11.7-3.4
		L72.2,59.4z M76.5,60.6L76.5,60.6c-0.2,0-0.4-0.1-0.5-0.4c-0.1-0.2,0-0.5,0.1-0.6s0.4-0.2,0.6-0.1c0.2,0.1,0.4,0.3,0.4,0.5
		C77.1,60.3,76.8,60.6,76.5,60.6L76.5,60.6z M80.7,33.8H34.9c-2.4,0-4.3,1.9-4.3,4.3V41h-1.2c-1.5,0-2.8,1.2-2.8,2.8
		c0,1.5,1.2,2.8,2.8,2.8h1.2v5.1l-1.2,0c-1.5,0-2.8,1.2-2.8,2.8c0,1.5,1.2,2.8,2.8,2.8h1.2v5.1l-1.2,0c-1.5,0-2.8,1.2-2.8,2.8
		c0,1.5,1.2,2.8,2.8,2.8h1.2v5.1h-1.2c-1.5,0-2.8,1.2-2.8,2.8c0,1.5,1.2,2.8,2.8,2.8h1.2v5.1h-1.2c-1.5,0-2.8,1.2-2.8,2.8
		c0,1.5,1.2,2.8,2.8,2.8h1.2v2.9c0,2.4,1.9,4.3,4.3,4.3h45.9c1.5,0,2.7-1.3,2.6-2.8V36.6C83.4,35.1,82.2,33.8,80.7,33.8L80.7,33.8z
		 M28.4,43.7c0-0.6,0.5-1,1-1h4.1c0.6,0,1,0.5,1,1c0,0.6-0.5,1-1,1h-4.1C28.8,44.8,28.4,44.3,28.4,43.7z M28.4,54.4c0-0.6,0.5-1,1-1
		h4.1c0.6,0,1,0.5,1,1c0,0.6-0.5,1-1,1h-4.1C28.8,55.4,28.4,54.9,28.4,54.4z M28.4,65c0-0.6,0.5-1,1-1h4.1c0.6,0,1,0.5,1,1
		s-0.5,1-1,1h-4.1C28.8,66,28.4,65.6,28.4,65z M28.4,75.6c0-0.6,0.5-1,1-1h4.1c0.6,0,1,0.5,1,1s-0.5,1-1,1h-4.1
		C28.8,76.7,28.4,76.2,28.4,75.6z M28.4,86.3c0-0.6,0.5-1,1-1h4.1c0.6,0,1,0.5,1,1c0,0.6-0.5,1-1,1h-4.1
		C28.8,87.3,28.4,86.8,28.4,86.3z M32.3,91.9V89h1.2c1.5,0,2.8-1.2,2.8-2.8c0-1.5-1.2-2.8-2.8-2.8h-1.2v-5.1h1.2
		c1.5,0,2.8-1.2,2.8-2.8c0-1.5-1.2-2.8-2.8-2.8h-1.2v-5.1h1.2c1.5,0,2.8-1.2,2.8-2.8s-1.2-2.8-2.8-2.8h-1.2v-5.1h1.2
		c1.5,0,2.8-1.2,2.8-2.8c0-1.5-1.2-2.8-2.8-2.8h-1.2v-5.1h1.2c1.5,0,2.8-1.2,2.8-2.8c0-1.5-1.2-2.8-2.8-2.8h-1.2v-2.9
		c0-1.4,1.1-2.6,2.6-2.6h2.6v59h-2.6C33.5,94.5,32.3,93.3,32.3,91.9L32.3,91.9z M81.6,93.4c0,0.5-0.4,1-0.9,1H39.3v-59h41.5
		c0.5,0,0.9,0.5,0.9,1V93.4z M75.3,71.8c0,0.2-0.1,0.4-0.3,0.6c-0.2,0.2-0.4,0.3-0.6,0.3H46c-0.5,0-0.8-0.4-0.8-0.9
		c0-0.5,0.4-0.8,0.8-0.9h28.4c0.2,0,0.4,0.1,0.6,0.3C75.2,71.4,75.3,71.6,75.3,71.8L75.3,71.8z M75.3,76.7L75.3,76.7
		c0,0.2-0.1,0.4-0.3,0.6c-0.2,0.2-0.4,0.3-0.6,0.3H46c-0.5,0-0.9-0.4-0.9-0.9c0-0.5,0.4-0.9,0.9-0.9h28.4c0.2,0,0.4,0.1,0.6,0.3
		C75.2,76.2,75.3,76.4,75.3,76.7L75.3,76.7z M75.3,81.5L75.3,81.5c0,0.5-0.4,0.9-0.9,0.9H46c-0.5,0-0.8-0.4-0.8-0.9
		c0-0.5,0.4-0.8,0.8-0.9h28.4c0.2,0,0.4,0.1,0.6,0.3C75.2,81,75.3,81.3,75.3,81.5L75.3,81.5z M75.3,86.3L75.3,86.3
		c0,0.2-0.1,0.5-0.3,0.6c-0.2,0.2-0.4,0.3-0.6,0.3H46c-0.5,0-0.8-0.4-0.8-0.9s0.4-0.8,0.8-0.9h28.4c0.2,0,0.4,0.1,0.6,0.3
		C75.2,85.9,75.3,86.1,75.3,86.3L75.3,86.3z"/>
</g>
</svg>
