<?xml version="1.0" encoding="utf-8"?>
<!-- Generator: Adobe Illustrator 28.0.0, SVG Export Plug-In . SVG Version: 6.00 Build 0)  -->
<svg version="1.1" id="Capa_1" xmlns="http://www.w3.org/2000/svg" xmlns:xlink="http://www.w3.org/1999/xlink" x="0px" y="0px"
	 viewBox="0 0 110 130" style="enable-background:new 0 0 110 130;" xml:space="preserve">
<style type="text/css">
	.st0{fill:#242424;}
	.st1{fill:#AEC90A;}
</style>
<circle class="st0" cx="55" cy="66.5" r="53.4"/>
<circle class="st1" cx="55" cy="66.5" r="49.9"/>
<g>
	<path class="st0" d="M73.3,64c0,0.7,0.6,1.4,1.4,1.4c0.7,0,1.4-0.6,1.4-1.4v-7.2c1.8-1,3-2.9,3-5v-6.1c0-3.2-2.6-5.8-5.8-5.8H57.9
		v-3c0-3-2.5-5.6-5.6-5.6h-8.6c-3,0-5.6,2.5-5.6,5.6v3H22.9c-3.2,0-5.8,2.6-5.8,5.8v6.1c0,2.2,1.1,4.1,3,5v21.1
		c0,3.2,2.6,5.8,5.8,5.8h32.2c0.7,0,1.4-0.6,1.4-1.4c0-0.7-0.6-1.4-1.4-1.4H25.9c-1.8,0-3.1-1.4-3.1-3.1v-20c2.9,1,7.1,2.1,12.9,2.7
		c0.7,0.1,1.4-0.5,1.5-1.2c0.1-0.7-0.5-1.4-1.2-1.5c-6.9-0.8-11.6-2.2-14.2-3.3c-1.2-0.5-2-1.6-2-2.9v-6.1c0-1.8,1.4-3.1,3.1-3.1
		h50.3c1.8,0,3.1,1.4,3.1,3.1v6.1c0,1.3-0.8,2.4-2,2.9c-2.6,1-7.3,2.5-14.2,3.3c-0.7,0.1-1.3,0.7-1.2,1.5c0.1,0.7,0.6,1.2,1.4,1.2
		h0.2c5.8-0.6,10.1-1.8,12.9-2.7L73.3,64L73.3,64z M40.8,36.9c0-1.6,1.3-2.9,2.9-2.9h8.6c1.6,0,2.9,1.3,2.9,2.9v3H40.8L40.8,36.9z"
		/>
	<path class="st0" d="M44.7,54.4c-2.6,0-4.6,2.1-4.6,4.6v2.6c0,2.6,2.1,4.6,4.6,4.6h6.6c2.6,0,4.6-2.1,4.6-4.6V59
		c0-2.6-2.1-4.6-4.6-4.6H44.7z M53.3,59.1v2.6c0,1.1-0.9,2-2,2h-6.6c-1.1,0-2-0.9-2-2v-2.6c0-1.1,0.9-2,2-2h6.6
		C52.4,57.1,53.3,58,53.3,59.1z"/>
	<path class="st0" d="M77.6,68c-8.5,0-15.3,6.9-15.3,15.3c0,8.5,6.9,15.3,15.3,15.3c4.1,0,7.9-1.6,10.9-4.5
		c2.9-2.9,4.5-6.7,4.5-10.9C92.9,74.9,86.1,68,77.6,68L77.6,68z M86.5,92.3c-2.4,2.4-5.6,3.7-8.9,3.7C70.6,96,65,90.3,65,83.4
		s5.7-12.6,12.6-12.6c6.9,0,12.6,5.7,12.6,12.6C90.2,86.7,88.9,89.9,86.5,92.3L86.5,92.3z"/>
	<path class="st0" d="M82.9,78.4l-7,7l-3.7-3.7c-0.6-0.6-1.4-0.6-1.9,0c-0.6,0.6-0.6,1.4,0,1.9l4.6,4.6c0.2,0.2,0.6,0.4,1,0.4
		c0.3,0,0.7-0.2,1-0.4l8-8c0.6-0.6,0.6-1.4,0-1.9C84.3,77.9,83.5,77.9,82.9,78.4z"/>
</g>
</svg>
